<svg xmlns="http://www.w3.org/2000/svg" viewBox="0 0 533.5 544.3">
  <path fill="#4285F4" d="M533.5 278.4c0-18.5-1.7-37-5.4-54.8H272v103.8h146.9c-6.3 34-25.6 62.8-54.6 82v68h88.4c51.7-47.6 80.8-117.8 80.8-199z"/>
  <path fill="#34A853" d="M272 544.3c73.2 0 134.7-24.2 179.6-65.8l-88.4-68c-24.6 16.6-56.2 26.4-91.2 26.4-70 0-129.3-47.1-150.5-110.3h-91.9v69.4C74.1 486.2 166.6 544.3 272 544.3z"/>
  <path fill="#FBBC05" d="M121.5 326.6c-10-29.7-10-61.8 0-91.5v-69.4h-91.9C4.1 212.1 0 242.8 0 272s4.1 59.9 29.6 106.3l91.9-51.7z"/>
  <path fill="#EA4335" d="M272 107.7c37.8-.6 74.4 13.3 102.2 38.8l76.5-76.5C406.5 25.1 341.7 0 272 0 166.6 0 74.1 58.1 29.6 165.7l91.9 69.4C142.7 154.9 202 107.7 272 107.7z"/>
</svg>